<?xml version="1.0" encoding="UTF-8"?>
<!DOCTYPE svg PUBLIC "-//W3C//DTD SVG 1.1//EN" "http://www.w3.org/Graphics/SVG/1.1/DTD/svg11.dtd">
<svg xmlns="http://www.w3.org/2000/svg" version="1.1" width="1280px" height="463px" style="shape-rendering:geometricPrecision; text-rendering:geometricPrecision; image-rendering:optimizeQuality; fill-rule:evenodd; clip-rule:evenodd" xmlns:xlink="http://www.w3.org/1999/xlink">
<g><path style="opacity:1" fill="#6265ee" d="M 234.5,40.5 C 240.613,41.1978 246.779,42.1978 253,43.5C 254.667,42.1667 256.333,42.1667 258,43.5C 258.464,42.9056 258.631,42.2389 258.5,41.5C 276.715,45.5167 294.381,51.35 311.5,59C 314.641,60.8865 317.308,63.2198 319.5,66C 317.655,70.0346 315.322,73.7013 312.5,77C 304.653,74.8217 296.986,71.8217 289.5,68C 234.08,48.0463 181.747,54.0463 132.5,86C 129.536,90.2089 125.536,91.8755 120.5,91C 118.707,88.2047 116.54,85.7047 114,83.5C 113.08,80.6917 113.913,78.5251 116.5,77C 133.962,63.7679 153.296,53.9345 174.5,47.5C 174.917,48.1239 175.584,48.4573 176.5,48.5C 178.646,48.3661 179.646,47.6995 179.5,46.5C 181.374,45.7148 183.374,45.0482 185.5,44.5C 185.369,45.2389 185.536,45.9056 186,46.5C 190.9,44.4975 196.067,43.1642 201.5,42.5C 202.167,42.8333 202.833,43.1667 203.5,43.5C 213.722,41.5645 224.056,40.5645 234.5,40.5 Z"/></g>
<g><path style="opacity:0.273" fill="#2b2848" d="M 246.5,40.5 C 242.5,40.5 238.5,40.5 234.5,40.5C 224.056,40.5645 213.722,41.5645 203.5,43.5C 202.833,43.1667 202.167,42.8333 201.5,42.5C 196.067,43.1642 190.9,44.4975 186,46.5C 185.536,45.9056 185.369,45.2389 185.5,44.5C 205.72,39.6371 226.054,38.3038 246.5,40.5 Z"/></g>
<g><path style="opacity:0.289" fill="#1d1b26" d="M 234.5,40.5 C 238.5,40.5 242.5,40.5 246.5,40.5C 250.548,40.3946 254.548,40.7279 258.5,41.5C 258.631,42.2389 258.464,42.9056 258,43.5C 256.333,42.1667 254.667,42.1667 253,43.5C 246.779,42.1978 240.613,41.1978 234.5,40.5 Z"/></g>
<g><path style="opacity:0.247" fill="#24213d" d="M 179.5,46.5 C 179.646,47.6995 178.646,48.3661 176.5,48.5C 175.584,48.4573 174.917,48.1239 174.5,47.5C 176.042,46.6993 177.708,46.366 179.5,46.5 Z"/></g>
<g><path style="opacity:1" fill="#6265ef" d="M 349.5,150.5 C 350.758,151.016 351.758,150.35 352.5,148.5C 362.429,136.73 372.595,125.064 383,113.5C 387.199,108.966 391.699,104.799 396.5,101C 405.573,99.6167 409.406,103.45 408,112.5C 381.005,144.083 353.171,174.916 324.5,205C 315.986,210.449 306.653,213.616 296.5,214.5C 289.639,213.892 282.972,212.725 276.5,211C 270.5,217.333 264.5,223.667 258.5,230C 257.391,230.638 256.225,231.138 255,231.5C 252.066,228.566 249.066,225.566 246,222.5C 245.333,220.833 245.333,219.167 246,217.5C 252.035,211.297 258.202,205.297 264.5,199.5C 265.376,199.631 266.043,199.298 266.5,198.5C 266.03,197.537 265.363,197.537 264.5,198.5C 258.044,184.583 257.878,170.583 264,156.5C 293.718,124.111 324.218,92.2775 355.5,61C 365.387,58.9085 369.72,62.7418 368.5,72.5C 345.248,97.684 321.581,122.684 297.5,147.5C 294.317,150.998 293.984,154.665 296.5,158.5C 298.421,159.641 300.421,159.808 302.5,159C 326.66,132.496 351.327,106.163 376.5,80C 379.5,79.3333 382.5,79.3333 385.5,80C 388.849,84.4784 389.349,89.3118 387,94.5C 364.667,118.5 342.333,142.5 320,166.5C 312.582,175.254 314.416,178.921 325.5,177.5C 333.645,168.371 341.645,159.371 349.5,150.5 Z"/></g>
<g><path style="opacity:1" fill="#6265f0" d="M 168.5,219.5 C 171.563,220.201 174.73,220.868 178,221.5C 181.532,220.949 184.365,220.282 186.5,219.5C 195.579,218.131 203.912,214.797 211.5,209.5C 214.926,211.181 217.593,213.681 219.5,217C 212.315,225.685 204.315,233.518 195.5,240.5C 193.31,238.476 190.977,236.643 188.5,235C 177.08,236.132 165.746,235.465 154.5,233C 145.325,229.613 136.658,225.28 128.5,220C 94.716,192.278 72.716,157.111 62.5,114.5C 60.4016,113.55 58.235,113.55 56,114.5C 53.6796,114.2 52.5129,112.867 52.5,110.5C 51.0259,99.4541 51.1925,88.4541 53,77.5C 56.0441,70.731 61.2107,67.731 68.5,68.5C 71.1667,68.6667 73.8333,68.8333 76.5,69C 119.286,112.128 162.119,155.961 205,200.5C 205.388,202.076 204.888,203.409 203.5,204.5C 181.101,214.893 159.767,213.06 139.5,199C 137.787,197.622 136.453,195.955 135.5,194C 130.119,191.108 127.619,192.608 128,198.5C 139.175,210.169 152.675,217.169 168.5,219.5 Z"/></g>
<g><path style="opacity:0.18" fill="#2b274e" d="M 352.5,148.5 C 351.758,150.35 350.758,151.016 349.5,150.5C 349.973,149.094 350.973,148.427 352.5,148.5 Z"/></g>
<g><path style="opacity:1" fill="#6265ee" d="M 400.5,150.5 C 401.643,150.908 402.643,151.575 403.5,152.5C 424.619,204.423 424.786,256.423 404,308.5C 397.673,322.826 389.506,335.992 379.5,348C 377.365,348.635 375.365,348.301 373.5,347C 372.023,344.555 370.19,342.388 368,340.5C 367.333,338.833 367.333,337.167 368,335.5C 398.021,293.044 408.021,246.044 398,194.5C 395.527,183.773 392.361,173.273 388.5,163C 388.667,162.167 388.833,161.333 389,160.5C 392.73,156.928 396.564,153.595 400.5,150.5 Z"/></g>
<g><path style="opacity:1" fill="#6265ef" d="M 52.5,156.5 C 54.371,156.859 55.871,157.859 57,159.5C 59.6664,164.319 62.4997,168.985 65.5,173.5C 57.8687,192.169 54.5354,211.669 55.5,232C 55.8142,260.753 62.3142,287.919 75,313.5C 80.6241,321.775 85.7907,330.275 90.5,339C 84.7247,350.829 78.2247,351.329 71,340.5C 48.4771,307.93 37.3105,271.763 37.5,232C 36.6267,205.582 41.6267,180.415 52.5,156.5 Z"/></g>
<g><path style="opacity:1" fill="#6164ed" d="M 977.5,176.5 C 992.711,174.198 997.877,180.198 993,194.5C 986.686,200.792 980.02,201.125 973,195.5C 970.031,190.705 969.698,185.705 972,180.5C 973.812,179.023 975.645,177.69 977.5,176.5 Z"/></g>
<g><path style="opacity:0.369" fill="#29263a" d="M 825.5,180.5 C 819.601,181.205 813.601,181.872 807.5,182.5C 807.414,181.504 807.748,180.671 808.5,180C 814.349,179.182 820.015,179.348 825.5,180.5 Z"/></g>
<g><path style="opacity:1" fill="#6265f0" d="M 825.5,180.5 C 826.833,197.82 827.5,215.487 827.5,233.5C 827.493,251.552 826.827,269.385 825.5,287C 819.804,287.83 814.137,287.663 808.5,286.5C 807.787,284.224 807.287,281.891 807,279.5C 801.893,284.434 795.726,287.267 788.5,288C 761.628,288.796 746.962,275.796 744.5,249C 745.813,224.188 758.813,210.688 783.5,208.5C 786.903,208.561 790.236,209.061 793.5,210C 798.561,211.542 803.228,213.542 807.5,216C 806.38,205.108 806.38,193.942 807.5,182.5C 813.601,181.872 819.601,181.205 825.5,180.5 Z M 783.5,225.5 C 798.133,225.937 806.133,233.437 807.5,248C 804.889,268.12 793.889,274.786 774.5,268C 765.868,260.368 763.035,250.868 766,239.5C 769.507,231.841 775.341,227.174 783.5,225.5 Z"/></g>
<g><path style="opacity:0.06" fill="#1c1b22" d="M 962.5,187.5 C 934.472,187.515 906.139,187.515 877.5,187.5C 877.611,186.883 877.944,186.383 878.5,186C 905.833,185.333 933.167,185.333 960.5,186C 961.416,186.278 962.082,186.778 962.5,187.5 Z"/></g>
<g><path style="opacity:0.328" fill="#35315c" d="M 551.5,186.5 C 527.777,186.854 504.11,187.854 480.5,189.5C 480.36,187.876 481.027,186.71 482.5,186C 505.524,185.208 528.524,185.375 551.5,186.5 Z"/></g>
<g><path style="opacity:1" fill="#6163ea" d="M 551.5,186.5 C 552.496,186.414 553.329,186.748 554,187.5C 554.781,192.554 554.614,197.554 553.5,202.5C 536.153,203.222 518.819,203.889 501.5,204.5C 501.5,213.5 501.5,222.5 501.5,231.5C 500.624,231.369 499.957,231.702 499.5,232.5C 515.521,233.788 531.521,233.788 547.5,232.5C 548.829,237.803 548.829,243.137 547.5,248.5C 532.181,249.499 516.848,249.833 501.5,249.5C 501.832,261.851 501.499,274.185 500.5,286.5C 493.892,287.462 487.226,287.795 480.5,287.5C 480.5,254.833 480.5,222.167 480.5,189.5C 504.11,187.854 527.777,186.854 551.5,186.5 Z"/></g>
<g><path style="opacity:1" fill="#6265f0" d="M 877.5,187.5 C 906.139,187.515 934.472,187.515 962.5,187.5C 963.815,192.68 963.815,198.014 962.5,203.5C 951.885,204.477 941.219,204.81 930.5,204.5C 930.5,232.167 930.5,259.833 930.5,287.5C 923.578,287.812 916.744,287.479 910,286.5C 909.5,259.169 909.333,231.835 909.5,204.5C 899.161,204.666 888.828,204.5 878.5,204C 878,203.5 877.5,203 877,202.5C 876.184,197.316 876.35,192.316 877.5,187.5 Z"/></g>
<g><path style="opacity:0.437" fill="#121212" d="M 264.5,199.5 C 264.5,199.167 264.5,198.833 264.5,198.5C 265.363,197.537 266.03,197.537 266.5,198.5C 266.043,199.298 265.376,199.631 264.5,199.5 Z"/></g>
<g><path style="opacity:1" fill="#6265ef" d="M 595.5,208.5 C 624.519,206.973 640.853,220.473 644.5,249C 641.653,274.176 627.486,287.343 602,288.5C 581.259,287.397 567.926,277.064 562,257.5C 558.876,231.16 570.043,214.827 595.5,208.5 Z M 599.5,225.5 C 620.089,227.291 627.589,238.291 622,258.5C 618.281,267.279 611.615,271.279 602,270.5C 598.083,270.084 594.249,269.251 590.5,268C 581.929,259.838 579.429,250.005 583,238.5C 586.37,231.279 591.87,226.946 599.5,225.5 Z"/></g>
<g><path style="opacity:1" fill="#6265f0" d="M 688.5,208.5 C 705.175,207.1 718.675,212.767 729,225.5C 739.148,244.35 737.315,261.85 723.5,278C 704.11,291.919 684.777,291.919 665.5,278C 650.68,260.937 649.18,242.771 661,223.5C 668.702,215.59 677.869,210.59 688.5,208.5 Z M 691.5,225.5 C 708.729,226.233 716.562,235.233 715,252.5C 713.048,264.416 706.048,270.416 694,270.5C 684.056,270.561 677.389,265.894 674,256.5C 670.565,240.685 676.398,230.351 691.5,225.5 Z"/></g>
<g><path style="opacity:1" fill="#6264ee" d="M 1052.5,208.5 C 1052.39,209.117 1052.06,209.617 1051.5,210C 1053,210.167 1054.5,210.333 1056,210.5C 1057.99,210.431 1059.49,209.765 1060.5,208.5C 1064.58,209.427 1068.58,210.594 1072.5,212C 1075.68,214.514 1078.84,217.014 1082,219.5C 1085.75,217.374 1089.25,214.874 1092.5,212C 1097.49,210.723 1102.49,209.556 1107.5,208.5C 1106.15,209.65 1106.32,210.317 1108,210.5C 1110.03,210.046 1111.86,209.38 1113.5,208.5C 1131.37,210.541 1140.87,220.541 1142,238.5C 1142.82,254.544 1142.65,270.544 1141.5,286.5C 1134.94,287.81 1128.44,287.81 1122,286.5C 1121.67,270.5 1121.33,254.5 1121,238.5C 1119.25,230.412 1114.25,226.412 1106,226.5C 1097.36,226.982 1091.7,231.315 1089,239.5C 1087.76,255.128 1087.1,270.794 1087,286.5C 1080.92,287.476 1074.76,287.81 1068.5,287.5C 1068.93,270.785 1068.43,254.118 1067,237.5C 1065.19,229.862 1060.36,226.196 1052.5,226.5C 1042.78,226.382 1036.61,231.049 1034,240.5C 1033.5,256.163 1033.33,271.83 1033.5,287.5C 1026.91,287.811 1020.41,287.478 1014,286.5C 1013.33,261.167 1013.33,235.833 1014,210.5C 1019.75,209.359 1025.58,209.193 1031.5,210C 1033.1,211.786 1033.93,213.953 1034,216.5C 1039.51,212.408 1045.67,209.742 1052.5,208.5 Z"/></g>
<g><path style="opacity:0.26" fill="#101010" d="M 1052.5,208.5 C 1055.17,208.5 1057.83,208.5 1060.5,208.5C 1059.49,209.765 1057.99,210.431 1056,210.5C 1054.5,210.333 1053,210.167 1051.5,210C 1052.06,209.617 1052.39,209.117 1052.5,208.5 Z"/></g>
<g><path style="opacity:0.224" fill="#0f0f0f" d="M 1107.5,208.5 C 1109.5,208.5 1111.5,208.5 1113.5,208.5C 1111.86,209.38 1110.03,210.046 1108,210.5C 1106.32,210.317 1106.15,209.65 1107.5,208.5 Z"/></g>
<g><path style="opacity:1" fill="#6164ed" d="M 1195.5,270.5 C 1196.49,272.026 1197.99,272.693 1200,272.5C 1202.86,272.129 1205.69,271.629 1208.5,271C 1207.55,270.517 1206.55,270.351 1205.5,270.5C 1208.26,269.239 1211.26,268.406 1214.5,268C 1216.37,265.791 1218.54,263.958 1221,262.5C 1225.25,266.081 1228.75,270.248 1231.5,275C 1222.89,284.386 1212.06,288.886 1199,288.5C 1169.11,286.28 1155.44,270.28 1158,240.5C 1162.83,220.013 1175.83,209.346 1197,208.5C 1225.23,211.387 1238.06,226.887 1235.5,255C 1216.16,255.167 1196.82,255.667 1177.5,256.5C 1180.96,264.642 1186.96,269.309 1195.5,270.5 Z M 1193.5,224.5 C 1202.56,223.951 1209.73,227.285 1215,234.5C 1216.13,236.345 1216.63,238.345 1216.5,240.5C 1203.48,240.313 1190.48,240.646 1177.5,241.5C 1179.07,232.264 1184.4,226.597 1193.5,224.5 Z"/></g>
<g><path style="opacity:1" fill="#6265ef" d="M 974.5,209.5 C 977.421,210.719 980.588,211.386 984,211.5C 986.544,211.664 988.71,210.997 990.5,209.5C 991.117,209.611 991.617,209.944 992,210.5C 992.982,235.496 993.316,260.496 993,285.5C 989.936,286.783 986.603,287.45 983,287.5C 979.582,287.481 976.249,287.147 973,286.5C 972.333,261.167 972.333,235.833 973,210.5C 973.383,209.944 973.883,209.611 974.5,209.5 Z"/></g>
<g><path style="opacity:0.297" fill="#1a1a1a" d="M 974.5,209.5 C 979.833,209.5 985.167,209.5 990.5,209.5C 988.71,210.997 986.544,211.664 984,211.5C 980.588,211.386 977.421,210.719 974.5,209.5 Z"/></g>
<g><path style="opacity:0.124" fill="#090909" d="M 168.5,219.5 C 174.5,219.5 180.5,219.5 186.5,219.5C 184.365,220.282 181.532,220.949 178,221.5C 174.73,220.868 171.563,220.201 168.5,219.5 Z"/></g>
<g><path style="opacity:1" fill="#6265f0" d="M 125.5,329.5 C 127.35,328.758 128.016,327.758 127.5,326.5C 160.999,292.501 194.666,258.667 228.5,225C 229.899,224.405 231.232,224.572 232.5,225.5C 239.5,232.667 246.333,240 253,247.5C 253.667,248.5 253.667,249.5 253,250.5C 219.358,285.811 186.025,321.477 153,357.5C 135.635,374.865 118.135,392.365 100.5,410C 84.471,413.979 74.8043,407.812 71.5,391.5C 72.0804,386.928 73.4138,382.594 75.5,378.5C 77.5267,377.307 79.0267,375.64 80,373.5C 95.3254,359.008 110.492,344.341 125.5,329.5 Z"/></g>
<g><path style="opacity:1" fill="#6164ed" d="M 81.5,226.5 C 91.1037,226.732 94.6037,231.398 92,240.5C 88.7464,245.223 84.2464,246.723 78.5,245C 74.0379,240.178 73.3712,234.845 76.5,229C 78.4913,228.626 80.158,227.793 81.5,226.5 Z"/></g>
<g><path style="opacity:1" fill="#6265f0" d="M 371.5,226.5 C 380.524,227.024 384.024,231.691 382,240.5C 378.746,245.223 374.246,246.723 368.5,245C 366.277,244.348 365.11,242.848 365,240.5C 364.044,236.428 364.544,232.595 366.5,229C 368.491,228.626 370.158,227.793 371.5,226.5 Z"/></g>
<g><path style="opacity:0.41" fill="#151515" d="M 501.5,231.5 C 517.009,231.17 532.342,231.504 547.5,232.5C 531.521,233.788 515.521,233.788 499.5,232.5C 499.957,231.702 500.624,231.369 501.5,231.5 Z"/></g>
<g><path style="opacity:1" fill="#6265f0" d="M 262.5,256.5 C 301.52,295.69 340.687,335.357 380,375.5C 390.387,389.337 388.22,400.837 373.5,410C 367.747,410.851 362.08,410.517 356.5,409C 317.727,367.905 278.894,327.405 240,287.5C 238.627,285.305 238.294,282.971 239,280.5C 246.701,272.3 254.534,264.3 262.5,256.5 Z"/></g>
<g><path style="opacity:0.158" fill="#0e0e0e" d="M 1195.5,270.5 C 1198.83,270.5 1202.17,270.5 1205.5,270.5C 1206.55,270.351 1207.55,270.517 1208.5,271C 1205.69,271.629 1202.86,272.129 1200,272.5C 1197.99,272.693 1196.49,272.026 1195.5,270.5 Z"/></g>
<g><path style="opacity:0.216" fill="#282547" d="M 127.5,326.5 C 128.016,327.758 127.35,328.758 125.5,329.5C 125.427,327.973 126.094,326.973 127.5,326.5 Z"/></g>
<g><path style="opacity:1" fill="#6265ef" d="M 147.5,384.5 C 167.332,394.61 188.332,401.443 210.5,405C 245.452,407.883 278.285,401.05 309,384.5C 313.774,387.12 316.941,391.12 318.5,396.5C 318.392,397.442 318.059,398.275 317.5,399C 259.764,429.582 201.764,430.248 143.5,401C 141.876,399.883 140.876,398.383 140.5,396.5C 141.33,394.172 142.163,391.838 143,389.5C 144.707,387.963 146.207,386.296 147.5,384.5 Z"/></g>
</svg>
